<?xml version="1.0" encoding="UTF-8" standalone="no"?>
<svg
   aria-hidden="true"
   role="img"
   class="iconify iconify--logos"
   width="37.07"
   height="36"
   preserveAspectRatio="xMidYMid meet"
   viewBox="0 0 256 198"
   version="1.1"
   id="svg8"
   sodipodi:docname="v3.svg"
   xml:space="preserve"
   inkscape:version="1.2.1 (9c6d41e410, 2022-07-14)"
   xmlns:inkscape="http://www.inkscape.org/namespaces/inkscape"
   xmlns:sodipodi="http://sodipodi.sourceforge.net/DTD/sodipodi-0.dtd"
   xmlns="http://www.w3.org/2000/svg"
   xmlns:svg="http://www.w3.org/2000/svg"><defs
     id="defs12"><rect
       x="14.871963"
       y="12.294156"
       width="15.169402"
       height="23.695995"
       id="rect1651" /><linearGradient
       id="IconifyId1813088fe1fbc01fb466"
       x1="-2.0007202"
       x2="139.28904"
       y1="48.343501"
       y2="219.34655"
       gradientTransform="scale(1.0592958,0.94402338)"
       gradientUnits="userSpaceOnUse"><stop
         offset="0%"
         stop-color="#41D1FF"
         id="stop4312" /><stop
         offset="100%"
         stop-color="#BD34FE"
         id="stop4314" /></linearGradient><linearGradient
       id="IconifyId1813088fe1fbc01fb467"
       x1="188.00649"
       x2="199.00609"
       y1="3.5533929"
       y2="141.10861"
       gradientTransform="matrix(0.74063538,0,0,1.3501921,354.77633,-157.55344)"
       gradientUnits="userSpaceOnUse"><stop
         offset="0%"
         stop-color="#FFEA83"
         id="stop4317" /><stop
         offset="8.333%"
         stop-color="#FFDD35"
         id="stop4319" /><stop
         offset="100%"
         stop-color="#FFA800"
         id="stop4321" /></linearGradient></defs><sodipodi:namedview
     id="namedview10"
     pagecolor="#ffffff"
     bordercolor="#000000"
     borderopacity="0.25"
     inkscape:showpageshadow="2"
     inkscape:pageopacity="0.0"
     inkscape:pagecheckerboard="0"
     inkscape:deskcolor="#d1d1d1"
     showgrid="false"
     inkscape:zoom="20.172185"
     inkscape:cx="34.577315"
     inkscape:cy="19.854071"
     inkscape:window-width="1697"
     inkscape:window-height="1230"
     inkscape:window-x="447"
     inkscape:window-y="108"
     inkscape:window-maximized="0"
     inkscape:current-layer="svg8" /><path
     fill="#41B883"
     d="m0 0l128 220.8L256 0h-51.2L128 132.48L50.56 0H0Z"
     id="path4"
     style="stroke-width:1.00134881;stroke-dasharray:none;fill:#346789;fill-opacity:1" /><path
     fill="#35495e"
     d="M 50.56,14.524483 128,133.12 204.8,14.524483 H 157.44 L 128,60.138143 97.92,14.524483 Z"
     id="path6"
     style="stroke-width:0.943871" /><text
     xml:space="preserve"
     transform="matrix(7.982295,0,0,6.9058538,24.007543,-2.7592351)"
     id="text1649"
     style="font-style:normal;font-variant:normal;font-weight:bold;font-stretch:normal;font-size:18.6667px;font-family:sans-serif;-inkscape-font-specification:'sans-serif Bold';white-space:pre;shape-inside:url(#rect1651);fill:#343434;fill-opacity:1;stroke-width:0.145;stroke-dasharray:none"><tspan
       x="14.871094"
       y="29.325119"
       id="tspan291">3</tspan></text><g
     id="g4343"
     transform="matrix(0.59369106,0,0,0.52215633,-171.66208,64.73334)"><path
       fill="url(#IconifyId1813088fe1fbc01fb467)"
       d="m 540.20833,-157.49044 -88.992,17.438 a 3.268,3.268 0 0 0 -2.634,3.014 l -5.474,92.456001 a 3.268,3.268 0 0 0 3.997,3.378 l 24.777,-5.718 c 2.318,-0.535 4.413,1.507 3.936,3.838 l -7.361,36.0470002 c -0.495,2.426 1.782,4.5 4.151,3.78 l 15.304,-4.649 c 2.372,-0.72 4.652,1.36 4.15,3.788 l -11.698,56.6209998 c -0.732,3.542 3.979,5.473 5.943,2.437 l 1.313,-2.028 72.516,-144.72 c 1.215,-2.423 -0.88,-5.186 -3.54,-4.672 l -25.505,4.922 c -2.396,0.462 -4.435,-1.77 -3.759,-4.114 l 16.646,-57.705001 c 0.677,-2.35 -1.37,-4.583 -3.769,-4.113 z"
       id="path4328"
       style="fill:url(#IconifyId1813088fe1fbc01fb467)" /></g></svg>
